<svg width="32" height="32" viewBox="0 0 32 32" fill="none" xmlns="http://www.w3.org/2000/svg">
    <rect width="32" height="32" rx="8" fill="#28a745"/>
    <path d="M16 8C13.33 8 8 10.67 8 16C8 19.33 10.67 24 16 24C21.33 24 24 19.33 24 16C24 10.67 18.67 8 16 8ZM16 22C11.67 22 10 18.67 10 16C10 11.67 13.33 10 16 10C18.67 10 22 11.67 22 16C22 18.67 20.33 22 16 22Z" fill="white"/>
    <path d="M16 12C14.67 12 12 13.33 12 16C12 17.33 13.33 20 16 20C18.67 20 20 17.33 20 16C20 13.33 17.33 12 16 12Z" fill="white"/>
</svg> 